<mxfile host="app.diagrams.net" modified="2022-10-18T02:23:21.216Z" agent="5.0 (Windows NT 10.0; Win64; x64) AppleWebKit/537.36 (KHTML, like Gecko) Chrome/106.0.0.0 Safari/537.36" etag="bgRHoi7w0FuXJBlPrZZ9" version="20.4.1" type="github" pages="2">
  <diagram id="xE6yutu449i4m1p3uRwP" name="模型">
    <mxGraphModel dx="3793" dy="2792" grid="1" gridSize="10" guides="1" tooltips="1" connect="1" arrows="1" fold="1" page="1" pageScale="1" pageWidth="827" pageHeight="1169" background="none" math="0" shadow="1">
      <root>
        <mxCell id="0" />
        <mxCell id="1" parent="0" />
        <mxCell id="maZDqukDoqaPE8SbIxAH-41" value="" style="rounded=0;whiteSpace=wrap;html=1;shadow=0;strokeWidth=3;fontFamily=Times New Roman;fontSize=56;fillColor=#FFF4D6;dashed=1;" parent="1" vertex="1">
          <mxGeometry x="-10" y="-374" width="1810" height="684" as="geometry" />
        </mxCell>
        <mxCell id="maZDqukDoqaPE8SbIxAH-40" value="" style="rounded=0;whiteSpace=wrap;html=1;shadow=0;strokeWidth=3;fontFamily=Times New Roman;fontSize=56;fillColor=#E0EFD8;dashed=1;" parent="1" vertex="1">
          <mxGeometry x="-10" y="320" width="1810" height="490" as="geometry" />
        </mxCell>
        <mxCell id="maZDqukDoqaPE8SbIxAH-33" value="" style="rounded=0;whiteSpace=wrap;html=1;strokeWidth=3;fillColor=#D9EDF4;dashed=1;shadow=0;" parent="1" vertex="1">
          <mxGeometry x="1820" y="-370" width="680" height="1180" as="geometry" />
        </mxCell>
        <mxCell id="maZDqukDoqaPE8SbIxAH-11" style="orthogonalLoop=1;jettySize=auto;html=1;exitX=1;exitY=0.5;exitDx=0;exitDy=0;edgeStyle=orthogonalEdgeStyle;curved=1;strokeWidth=3;" parent="1" source="rSC-oQ76qF_qCHtcjeeN-8" edge="1">
          <mxGeometry relative="1" as="geometry">
            <mxPoint x="930" y="-80" as="targetPoint" />
          </mxGeometry>
        </mxCell>
        <mxCell id="maZDqukDoqaPE8SbIxAH-31" style="edgeStyle=orthogonalEdgeStyle;curved=1;orthogonalLoop=1;jettySize=auto;html=1;exitX=1;exitY=0.5;exitDx=0;exitDy=0;entryX=0.5;entryY=1;entryDx=0;entryDy=0;strokeWidth=3;" parent="1" source="rSC-oQ76qF_qCHtcjeeN-8" target="maZDqukDoqaPE8SbIxAH-29" edge="1">
          <mxGeometry relative="1" as="geometry" />
        </mxCell>
        <mxCell id="rSC-oQ76qF_qCHtcjeeN-8" value="" style="rounded=0;whiteSpace=wrap;html=1;fillColor=none;dashed=1;strokeWidth=2;" parent="1" vertex="1">
          <mxGeometry x="558" y="110" width="234" height="164" as="geometry" />
        </mxCell>
        <mxCell id="arP89rZSrupbbn2dp-Xk-2" value="" style="rounded=0;whiteSpace=wrap;html=1;fontFamily=Times New Roman;fontSize=36;fillColor=none;dashed=1;strokeWidth=2;" parent="1" vertex="1">
          <mxGeometry x="20" y="-290" width="430" height="1050" as="geometry" />
        </mxCell>
        <mxCell id="HhYw5Z5-gJKjL5FxkoDt-12" value="" style="rounded=0;whiteSpace=wrap;html=1;fontSize=24;fillColor=none;dashed=1;" parent="1" vertex="1">
          <mxGeometry x="650" y="477" width="220" height="70" as="geometry" />
        </mxCell>
        <mxCell id="arP89rZSrupbbn2dp-Xk-157" style="edgeStyle=orthogonalEdgeStyle;sketch=0;orthogonalLoop=1;jettySize=auto;html=1;exitX=1;exitY=0.5;exitDx=0;exitDy=0;entryX=0.47;entryY=1.045;entryDx=0;entryDy=0;fontFamily=Times New Roman;fontSize=36;startArrow=none;startFill=0;endArrow=classicThin;endFill=1;endSize=7;strokeColor=#000000;strokeWidth=3;elbow=vertical;entryPerimeter=0;" parent="1" target="arP89rZSrupbbn2dp-Xk-163" edge="1">
          <mxGeometry relative="1" as="geometry">
            <mxPoint x="1511" y="666" as="sourcePoint" />
          </mxGeometry>
        </mxCell>
        <mxCell id="HhYw5Z5-gJKjL5FxkoDt-22" value="" style="rounded=1;whiteSpace=wrap;html=1;fontSize=24;fillColor=none;" parent="1" vertex="1">
          <mxGeometry x="1300" y="636" width="210" height="60" as="geometry" />
        </mxCell>
        <mxCell id="arP89rZSrupbbn2dp-Xk-5" value="" style="sketch=0;orthogonalLoop=1;jettySize=auto;html=1;fontFamily=Times New Roman;fontSize=24;startArrow=none;startFill=0;endArrow=classicThin;endFill=1;endSize=7;strokeWidth=3;elbow=vertical;rounded=0;entryX=0.5;entryY=1;entryDx=0;entryDy=0;exitX=0.491;exitY=1.02;exitDx=0;exitDy=0;exitPerimeter=0;" parent="1" target="maZDqukDoqaPE8SbIxAH-37" edge="1">
          <mxGeometry relative="1" as="geometry">
            <mxPoint x="230" y="530" as="targetPoint" />
            <mxPoint x="237.65499999999975" y="606.6074000000003" as="sourcePoint" />
          </mxGeometry>
        </mxCell>
        <mxCell id="arP89rZSrupbbn2dp-Xk-267" style="sketch=0;orthogonalLoop=1;jettySize=auto;html=1;exitX=0.104;exitY=-0.003;exitDx=0;exitDy=0;entryX=0.5;entryY=1;entryDx=0;entryDy=0;fontFamily=Times New Roman;fontSize=36;startArrow=none;startFill=0;endArrow=classic;endFill=1;endSize=3;strokeColor=#000000;strokeWidth=2;elbow=vertical;exitPerimeter=0;" parent="1" target="HhYw5Z5-gJKjL5FxkoDt-7" edge="1">
          <mxGeometry relative="1" as="geometry">
            <mxPoint x="614.8600000000001" y="618.7973900000002" as="sourcePoint" />
          </mxGeometry>
        </mxCell>
        <mxCell id="arP89rZSrupbbn2dp-Xk-268" style="edgeStyle=none;sketch=0;orthogonalLoop=1;jettySize=auto;html=1;entryX=0.425;entryY=1;entryDx=0;entryDy=0;entryPerimeter=0;fontFamily=Times New Roman;fontSize=36;startArrow=none;startFill=0;endArrow=classic;endFill=1;endSize=3;strokeColor=#000000;strokeWidth=2;elbow=vertical;" parent="1" target="HhYw5Z5-gJKjL5FxkoDt-12" edge="1">
          <mxGeometry relative="1" as="geometry">
            <mxPoint x="744" y="570" as="sourcePoint" />
            <Array as="points" />
          </mxGeometry>
        </mxCell>
        <mxCell id="HhYw5Z5-gJKjL5FxkoDt-2" value="&lt;font face=&quot;Times New Roman&quot; style=&quot;font-size: 36px;&quot;&gt;&lt;b style=&quot;&quot;&gt;BERT&lt;/b&gt;&lt;/font&gt;" style="shape=ext;double=1;rounded=1;whiteSpace=wrap;html=1;fillColor=#8EC9EE;strokeColor=#6c8ebf;" parent="1" vertex="1">
          <mxGeometry x="550" y="567.13" width="323" height="160" as="geometry" />
        </mxCell>
        <mxCell id="HhYw5Z5-gJKjL5FxkoDt-31" style="rounded=0;sketch=0;orthogonalLoop=1;jettySize=auto;html=1;exitX=0.5;exitY=0;exitDx=0;exitDy=0;entryX=0;entryY=0.5;entryDx=0;entryDy=0;fontSize=24;startArrow=none;startFill=0;endArrow=classicThin;endFill=1;endSize=7;strokeWidth=3;elbow=vertical;edgeStyle=orthogonalEdgeStyle;" parent="1" source="HhYw5Z5-gJKjL5FxkoDt-7" target="HhYw5Z5-gJKjL5FxkoDt-24" edge="1">
          <mxGeometry relative="1" as="geometry" />
        </mxCell>
        <mxCell id="HhYw5Z5-gJKjL5FxkoDt-7" value="" style="rounded=0;whiteSpace=wrap;html=1;fontSize=24;fillColor=#94CB82;strokeColor=#82b366;" parent="1" vertex="1">
          <mxGeometry x="590" y="486" width="50" height="50" as="geometry" />
        </mxCell>
        <mxCell id="HhYw5Z5-gJKjL5FxkoDt-14" value="" style="edgeStyle=orthogonalEdgeStyle;curved=1;rounded=0;sketch=0;orthogonalLoop=1;jettySize=auto;html=1;dashed=1;fontSize=24;startArrow=none;startFill=0;endArrow=classicThin;endFill=1;endSize=7;strokeWidth=3;elbow=vertical;entryX=0.001;entryY=0.638;entryDx=0;entryDy=0;entryPerimeter=0;" parent="1" source="HhYw5Z5-gJKjL5FxkoDt-12" target="HhYw5Z5-gJKjL5FxkoDt-13" edge="1">
          <mxGeometry relative="1" as="geometry" />
        </mxCell>
        <mxCell id="4NWWXaF-FE0anquEJio0-17" value="" style="edgeStyle=orthogonalEdgeStyle;curved=1;sketch=0;orthogonalLoop=1;jettySize=auto;html=1;fontFamily=Times New Roman;fontSize=36;startArrow=none;startFill=0;endArrow=classic;endFill=1;endSize=3;strokeColor=#000000;strokeWidth=3;elbow=vertical;exitX=1;exitY=0.5;exitDx=0;exitDy=0;entryX=0;entryY=0.5;entryDx=0;entryDy=0;" parent="1" source="HhYw5Z5-gJKjL5FxkoDt-13" target="HhYw5Z5-gJKjL5FxkoDt-22" edge="1">
          <mxGeometry relative="1" as="geometry">
            <mxPoint x="1309" y="636" as="sourcePoint" />
          </mxGeometry>
        </mxCell>
        <mxCell id="HhYw5Z5-gJKjL5FxkoDt-13" value="&lt;font face=&quot;Times New Roman&quot; style=&quot;font-size: 36px;&quot;&gt;&lt;b style=&quot;&quot;&gt;BiLSTM&lt;/b&gt;&lt;/font&gt;" style="shape=ext;double=1;rounded=1;whiteSpace=wrap;html=1;fillColor=#F8FFFF;strokeColor=#d6b656;" parent="1" vertex="1">
          <mxGeometry x="926" y="568.88" width="306" height="160" as="geometry" />
        </mxCell>
        <mxCell id="arP89rZSrupbbn2dp-Xk-153" style="edgeStyle=orthogonalEdgeStyle;sketch=0;orthogonalLoop=1;jettySize=auto;html=1;exitX=1;exitY=0.5;exitDx=0;exitDy=0;entryX=0.5;entryY=1;entryDx=0;entryDy=0;fontFamily=Times New Roman;fontSize=36;startArrow=none;startFill=0;endArrow=classicThin;endFill=1;endSize=7;strokeWidth=2;elbow=vertical;" parent="1" target="arP89rZSrupbbn2dp-Xk-142" edge="1">
          <mxGeometry relative="1" as="geometry">
            <mxPoint x="1513.5" y="429.99999999999955" as="sourcePoint" />
          </mxGeometry>
        </mxCell>
        <mxCell id="HhYw5Z5-gJKjL5FxkoDt-26" value="" style="group" parent="1" vertex="1" connectable="0">
          <mxGeometry x="1309.5" y="646" width="191" height="40" as="geometry" />
        </mxCell>
        <mxCell id="HhYw5Z5-gJKjL5FxkoDt-27" value="" style="ellipse;whiteSpace=wrap;html=1;aspect=fixed;fontSize=24;fillColor=#F8FFFF;strokeColor=#d6b656;" parent="HhYw5Z5-gJKjL5FxkoDt-26" vertex="1">
          <mxGeometry width="40" height="40" as="geometry" />
        </mxCell>
        <mxCell id="HhYw5Z5-gJKjL5FxkoDt-28" value="" style="ellipse;whiteSpace=wrap;html=1;aspect=fixed;fontSize=24;fillColor=#FFFFFF;strokeColor=#d6b656;" parent="HhYw5Z5-gJKjL5FxkoDt-26" vertex="1">
          <mxGeometry x="51" width="40" height="40" as="geometry" />
        </mxCell>
        <mxCell id="HhYw5Z5-gJKjL5FxkoDt-29" value="" style="ellipse;whiteSpace=wrap;html=1;aspect=fixed;fontSize=24;fillColor=#FFFFFF;strokeColor=#d6b656;" parent="HhYw5Z5-gJKjL5FxkoDt-26" vertex="1">
          <mxGeometry x="102" width="40" height="40" as="geometry" />
        </mxCell>
        <mxCell id="HhYw5Z5-gJKjL5FxkoDt-30" value="" style="ellipse;whiteSpace=wrap;html=1;aspect=fixed;fontSize=24;fillColor=#FFFFFF;strokeColor=#d6b656;" parent="HhYw5Z5-gJKjL5FxkoDt-26" vertex="1">
          <mxGeometry x="152" width="40" height="40" as="geometry" />
        </mxCell>
        <mxCell id="arP89rZSrupbbn2dp-Xk-3" value="&lt;span style=&quot;color: rgb(51, 51, 51); text-align: start;&quot;&gt;&lt;font size=&quot;1&quot; style=&quot;&quot;&gt;&lt;b style=&quot;font-size: 50px;&quot;&gt;Aspect Acquisition&lt;/b&gt;&lt;/font&gt;&lt;/span&gt;" style="text;html=1;strokeColor=none;fillColor=none;align=center;verticalAlign=middle;whiteSpace=wrap;rounded=0;dashed=1;fontFamily=Times New Roman;fontSize=36;" parent="1" vertex="1">
          <mxGeometry x="38" y="-368" width="412.5" height="60" as="geometry" />
        </mxCell>
        <mxCell id="arP89rZSrupbbn2dp-Xk-9" style="sketch=0;orthogonalLoop=1;jettySize=auto;html=1;entryX=0.5;entryY=1;entryDx=0;entryDy=0;fontFamily=Times New Roman;fontSize=24;startArrow=none;startFill=0;endArrow=classicThin;endFill=1;endSize=7;strokeWidth=3;elbow=vertical;rounded=0;exitX=0.238;exitY=-0.001;exitDx=0;exitDy=0;exitPerimeter=0;" parent="1" source="arP89rZSrupbbn2dp-Xk-6" target="arP89rZSrupbbn2dp-Xk-7" edge="1">
          <mxGeometry relative="1" as="geometry">
            <mxPoint x="170" y="190" as="sourcePoint" />
          </mxGeometry>
        </mxCell>
        <mxCell id="arP89rZSrupbbn2dp-Xk-17" style="edgeStyle=none;rounded=0;sketch=0;orthogonalLoop=1;jettySize=auto;html=1;exitX=0.75;exitY=0;exitDx=0;exitDy=0;fontFamily=Times New Roman;fontSize=24;startArrow=none;startFill=0;endArrow=classicThin;endFill=1;endSize=7;strokeWidth=3;elbow=vertical;entryX=0.344;entryY=1.032;entryDx=0;entryDy=0;entryPerimeter=0;" parent="1" source="arP89rZSrupbbn2dp-Xk-6" target="arP89rZSrupbbn2dp-Xk-8" edge="1">
          <mxGeometry relative="1" as="geometry">
            <mxPoint x="310" y="256.62" as="sourcePoint" />
            <mxPoint x="310" y="110" as="targetPoint" />
          </mxGeometry>
        </mxCell>
        <mxCell id="arP89rZSrupbbn2dp-Xk-6" value="&lt;span style=&quot;color: rgb(51, 51, 51); text-align: start;&quot;&gt;&lt;b style=&quot;&quot;&gt;&lt;font style=&quot;font-size: 36px;&quot;&gt;Aspect Extraction&lt;/font&gt;&lt;/b&gt;&lt;/span&gt;" style="rounded=1;whiteSpace=wrap;html=1;fontFamily=Times New Roman;fontSize=24;strokeWidth=2;fillColor=#1ba1e2;fontColor=#ffffff;strokeColor=#006EAF;" parent="1" vertex="1">
          <mxGeometry x="67.5" y="184" width="325" height="119" as="geometry" />
        </mxCell>
        <mxCell id="arP89rZSrupbbn2dp-Xk-15" style="rounded=0;sketch=0;orthogonalLoop=1;jettySize=auto;html=1;exitX=0.5;exitY=0;exitDx=0;exitDy=0;entryX=0.5;entryY=1;entryDx=0;entryDy=0;fontFamily=Times New Roman;fontSize=24;startArrow=none;startFill=0;endArrow=classicThin;endFill=1;endSize=7;strokeWidth=3;elbow=vertical;" parent="1" source="arP89rZSrupbbn2dp-Xk-7" target="arP89rZSrupbbn2dp-Xk-14" edge="1">
          <mxGeometry relative="1" as="geometry" />
        </mxCell>
        <mxCell id="arP89rZSrupbbn2dp-Xk-7" value="&lt;b&gt;&lt;font style=&quot;font-size: 36px;&quot;&gt;Words&lt;/font&gt;&lt;/b&gt;" style="rounded=1;whiteSpace=wrap;html=1;fontFamily=Times New Roman;fontSize=24;strokeWidth=2;fillColor=#dae8fc;strokeColor=#6c8ebf;gradientColor=#7ea6e0;" parent="1" vertex="1">
          <mxGeometry x="65" y="23.000000000000007" width="155" height="86" as="geometry" />
        </mxCell>
        <mxCell id="arP89rZSrupbbn2dp-Xk-16" style="rounded=0;sketch=0;orthogonalLoop=1;jettySize=auto;html=1;exitX=0.5;exitY=0;exitDx=0;exitDy=0;fontFamily=Times New Roman;fontSize=24;startArrow=none;startFill=0;endArrow=classicThin;endFill=1;endSize=7;strokeWidth=3;elbow=vertical;entryX=0.5;entryY=1;entryDx=0;entryDy=0;" parent="1" source="arP89rZSrupbbn2dp-Xk-8" target="arP89rZSrupbbn2dp-Xk-14" edge="1">
          <mxGeometry relative="1" as="geometry">
            <mxPoint x="240" y="10" as="targetPoint" />
          </mxGeometry>
        </mxCell>
        <mxCell id="maZDqukDoqaPE8SbIxAH-1" style="edgeStyle=orthogonalEdgeStyle;orthogonalLoop=1;jettySize=auto;html=1;exitX=1;exitY=0.5;exitDx=0;exitDy=0;entryX=0;entryY=0.5;entryDx=0;entryDy=0;curved=1;strokeWidth=3;" parent="1" source="arP89rZSrupbbn2dp-Xk-8" target="rSC-oQ76qF_qCHtcjeeN-8" edge="1">
          <mxGeometry relative="1" as="geometry" />
        </mxCell>
        <mxCell id="arP89rZSrupbbn2dp-Xk-8" value="&lt;b&gt;&lt;font style=&quot;font-size: 36px;&quot;&gt;Words&lt;/font&gt;&lt;/b&gt;" style="rounded=1;whiteSpace=wrap;html=1;fontFamily=Times New Roman;fontSize=24;strokeWidth=2;fillColor=#fad9d5;strokeColor=#ae4132;" parent="1" vertex="1">
          <mxGeometry x="260" y="29.000000000000007" width="154.5" height="80" as="geometry" />
        </mxCell>
        <mxCell id="arP89rZSrupbbn2dp-Xk-12" value="&lt;font style=&quot;font-size: 31px;&quot;&gt;W&lt;sub&gt;i&lt;/sub&gt;&lt;sup&gt;r&lt;/sup&gt;&lt;/font&gt;" style="text;html=1;strokeColor=none;fillColor=none;align=center;verticalAlign=middle;whiteSpace=wrap;rounded=0;fontFamily=Times New Roman;fontSize=24;fontStyle=1" parent="1" vertex="1">
          <mxGeometry x="160" y="150" width="60" height="30" as="geometry" />
        </mxCell>
        <mxCell id="arP89rZSrupbbn2dp-Xk-13" value="&lt;font style=&quot;font-size: 31px;&quot;&gt;&lt;font style=&quot;font-size: 31px;&quot;&gt;W&lt;sub style=&quot;&quot;&gt;j&lt;/sub&gt;&lt;/font&gt;&lt;sup style=&quot;&quot;&gt;&lt;font style=&quot;font-size: 31px;&quot;&gt;r&lt;/font&gt;&amp;nbsp;&lt;/sup&gt;&lt;/font&gt;" style="text;html=1;strokeColor=none;fillColor=none;align=center;verticalAlign=middle;whiteSpace=wrap;rounded=0;fontFamily=Times New Roman;fontSize=24;fontStyle=1" parent="1" vertex="1">
          <mxGeometry x="350" y="146" width="60" height="30" as="geometry" />
        </mxCell>
        <mxCell id="arP89rZSrupbbn2dp-Xk-19" value="" style="edgeStyle=none;rounded=0;sketch=0;orthogonalLoop=1;jettySize=auto;html=1;fontFamily=Times New Roman;fontSize=24;startArrow=none;startFill=0;endArrow=classicThin;endFill=1;endSize=7;strokeWidth=2;elbow=vertical;entryX=0;entryY=0.25;entryDx=0;entryDy=0;" parent="1" source="arP89rZSrupbbn2dp-Xk-14" target="arP89rZSrupbbn2dp-Xk-18" edge="1">
          <mxGeometry relative="1" as="geometry">
            <Array as="points" />
          </mxGeometry>
        </mxCell>
        <mxCell id="arP89rZSrupbbn2dp-Xk-14" value="&lt;b&gt;&lt;font style=&quot;font-size: 36px;&quot;&gt;Target Set&lt;/font&gt;&lt;/b&gt;" style="rounded=1;whiteSpace=wrap;html=1;fontFamily=Times New Roman;fontSize=24;strokeWidth=2;fillColor=#f5f5f5;strokeColor=#666666;gradientColor=#b3b3b3;" parent="1" vertex="1">
          <mxGeometry x="77.5" y="-251" width="315" height="161" as="geometry" />
        </mxCell>
        <mxCell id="maZDqukDoqaPE8SbIxAH-9" style="orthogonalLoop=1;jettySize=auto;html=1;exitX=1;exitY=0.5;exitDx=0;exitDy=0;entryX=0.5;entryY=1;entryDx=0;entryDy=0;dashed=1;strokeWidth=3;" parent="1" source="arP89rZSrupbbn2dp-Xk-18" target="maZDqukDoqaPE8SbIxAH-23" edge="1">
          <mxGeometry relative="1" as="geometry">
            <mxPoint x="1010" y="-84" as="targetPoint" />
          </mxGeometry>
        </mxCell>
        <mxCell id="arP89rZSrupbbn2dp-Xk-18" value="" style="whiteSpace=wrap;html=1;fontSize=24;fontFamily=Times New Roman;fillColor=#CED2D5;strokeColor=#23445d;rounded=1;strokeWidth=2;" parent="1" vertex="1">
          <mxGeometry x="559" y="-260" width="230" height="350" as="geometry" />
        </mxCell>
        <mxCell id="arP89rZSrupbbn2dp-Xk-168" style="edgeStyle=orthogonalEdgeStyle;sketch=0;orthogonalLoop=1;jettySize=auto;html=1;exitX=0.5;exitY=0;exitDx=0;exitDy=0;fontFamily=Times New Roman;fontSize=26;startArrow=none;startFill=0;endArrow=classicThin;endFill=1;endSize=7;strokeColor=#000000;strokeWidth=2;elbow=vertical;entryX=0.5;entryY=1;entryDx=0;entryDy=0;" parent="1" source="arP89rZSrupbbn2dp-Xk-142" target="arP89rZSrupbbn2dp-Xk-170" edge="1">
          <mxGeometry relative="1" as="geometry">
            <mxPoint x="1841" y="30" as="targetPoint" />
          </mxGeometry>
        </mxCell>
        <mxCell id="arP89rZSrupbbn2dp-Xk-142" value="" style="rounded=1;whiteSpace=wrap;html=1;fontFamily=Times New Roman;fontSize=36;strokeColor=#000000;strokeWidth=2;fillColor=none;rotation=90;" parent="1" vertex="1">
          <mxGeometry x="1577.5" y="405.75" width="200" height="49.5" as="geometry" />
        </mxCell>
        <mxCell id="arP89rZSrupbbn2dp-Xk-146" value="" style="group" parent="1" vertex="1" connectable="0">
          <mxGeometry x="1873" y="-264" width="60" height="210" as="geometry" />
        </mxCell>
        <mxCell id="arP89rZSrupbbn2dp-Xk-147" value="" style="rounded=1;whiteSpace=wrap;html=1;fontFamily=Times New Roman;fontSize=36;strokeWidth=2;fillColor=none;strokeColor=#000000;" parent="arP89rZSrupbbn2dp-Xk-146" vertex="1">
          <mxGeometry y="-1" width="60" height="210" as="geometry" />
        </mxCell>
        <mxCell id="arP89rZSrupbbn2dp-Xk-148" value="" style="ellipse;whiteSpace=wrap;html=1;aspect=fixed;fontSize=24;fillColor=#f8cecc;strokeColor=#b85450;rotation=-90;" parent="arP89rZSrupbbn2dp-Xk-146" vertex="1">
          <mxGeometry x="9.799999999999955" y="10.000000000000028" width="40.4" height="40.4" as="geometry" />
        </mxCell>
        <mxCell id="arP89rZSrupbbn2dp-Xk-149" value="" style="ellipse;whiteSpace=wrap;html=1;aspect=fixed;fontSize=24;fillColor=#f8cecc;strokeColor=#b85450;rotation=-90;" parent="arP89rZSrupbbn2dp-Xk-146" vertex="1">
          <mxGeometry x="9.799999999999955" y="60.00000000000003" width="40.4" height="40.4" as="geometry" />
        </mxCell>
        <mxCell id="arP89rZSrupbbn2dp-Xk-150" value="" style="ellipse;whiteSpace=wrap;html=1;aspect=fixed;fontSize=24;fillColor=#f8cecc;strokeColor=#b85450;rotation=-90;" parent="arP89rZSrupbbn2dp-Xk-146" vertex="1">
          <mxGeometry x="9.799999999999955" y="108.60000000000002" width="40.4" height="40.4" as="geometry" />
        </mxCell>
        <mxCell id="arP89rZSrupbbn2dp-Xk-151" value="" style="ellipse;whiteSpace=wrap;html=1;aspect=fixed;fontSize=24;fillColor=#f8cecc;strokeColor=#b85450;rotation=-90;" parent="arP89rZSrupbbn2dp-Xk-146" vertex="1">
          <mxGeometry x="9.799999999999955" y="159.80000000000004" width="40.4" height="40.4" as="geometry" />
        </mxCell>
        <mxCell id="arP89rZSrupbbn2dp-Xk-152" style="edgeStyle=orthogonalEdgeStyle;sketch=0;orthogonalLoop=1;jettySize=auto;html=1;exitX=1;exitY=0.5;exitDx=0;exitDy=0;fontFamily=Times New Roman;fontSize=36;startArrow=none;startFill=0;endArrow=classicThin;endFill=1;endSize=7;strokeWidth=3;elbow=vertical;entryX=0;entryY=0.5;entryDx=0;entryDy=0;" parent="1" source="e01b3pUl95MMTs82BliH-9" target="arP89rZSrupbbn2dp-Xk-170" edge="1">
          <mxGeometry relative="1" as="geometry">
            <mxPoint x="1771" y="-20" as="targetPoint" />
            <mxPoint x="1419" y="-100" as="sourcePoint" />
          </mxGeometry>
        </mxCell>
        <mxCell id="arP89rZSrupbbn2dp-Xk-155" style="sketch=0;orthogonalLoop=1;jettySize=auto;html=1;fontFamily=Times New Roman;fontSize=36;startArrow=none;startFill=0;endArrow=classicThin;endFill=1;endSize=7;strokeWidth=2;elbow=vertical;dashed=1;strokeColor=#4D4D4D;" parent="1" edge="1">
          <mxGeometry relative="1" as="geometry">
            <mxPoint x="1581" y="430" as="targetPoint" />
            <mxPoint x="1581" y="320" as="sourcePoint" />
          </mxGeometry>
        </mxCell>
        <mxCell id="arP89rZSrupbbn2dp-Xk-156" style="edgeStyle=orthogonalEdgeStyle;sketch=0;orthogonalLoop=1;jettySize=auto;html=1;fontFamily=Times New Roman;fontSize=36;startArrow=none;startFill=0;endArrow=classicThin;endFill=1;endSize=7;strokeWidth=3;elbow=vertical;dashed=1;strokeColor=#4D4D4D;" parent="1" edge="1">
          <mxGeometry relative="1" as="geometry">
            <mxPoint x="1541" y="660" as="targetPoint" />
            <mxPoint x="1541" y="-100" as="sourcePoint" />
            <Array as="points">
              <mxPoint x="1541" y="-20" />
            </Array>
          </mxGeometry>
        </mxCell>
        <mxCell id="arP89rZSrupbbn2dp-Xk-159" value="" style="ellipse;whiteSpace=wrap;html=1;aspect=fixed;fontSize=24;fillColor=#f5f5f5;strokeColor=#666666;gradientColor=#b3b3b3;" parent="1" vertex="1">
          <mxGeometry x="1657.5" y="338" width="40" height="40" as="geometry" />
        </mxCell>
        <mxCell id="arP89rZSrupbbn2dp-Xk-160" value="" style="ellipse;whiteSpace=wrap;html=1;aspect=fixed;fontSize=24;fillColor=#f5f5f5;strokeColor=#666666;gradientColor=#b3b3b3;" parent="1" vertex="1">
          <mxGeometry x="1657.5" y="386" width="40" height="40" as="geometry" />
        </mxCell>
        <mxCell id="arP89rZSrupbbn2dp-Xk-161" value="" style="ellipse;whiteSpace=wrap;html=1;aspect=fixed;fontSize=24;fillColor=#f5f5f5;strokeColor=#666666;gradientColor=#b3b3b3;" parent="1" vertex="1">
          <mxGeometry x="1657.5" y="434.75" width="40" height="40" as="geometry" />
        </mxCell>
        <mxCell id="arP89rZSrupbbn2dp-Xk-162" value="" style="ellipse;whiteSpace=wrap;html=1;aspect=fixed;fontSize=24;fillColor=#f5f5f5;strokeColor=#666666;gradientColor=#b3b3b3;" parent="1" vertex="1">
          <mxGeometry x="1657.5" y="481.75" width="40" height="40" as="geometry" />
        </mxCell>
        <mxCell id="arP89rZSrupbbn2dp-Xk-169" style="edgeStyle=orthogonalEdgeStyle;sketch=0;orthogonalLoop=1;jettySize=auto;html=1;exitX=0.5;exitY=0;exitDx=0;exitDy=0;fontFamily=Times New Roman;fontSize=26;startArrow=none;startFill=0;endArrow=none;endFill=0;endSize=7;strokeColor=#000000;strokeWidth=3;elbow=vertical;entryX=0.5;entryY=1;entryDx=0;entryDy=0;" parent="1" source="arP89rZSrupbbn2dp-Xk-163" target="arP89rZSrupbbn2dp-Xk-170" edge="1">
          <mxGeometry relative="1" as="geometry">
            <mxPoint x="1841" y="230" as="targetPoint" />
          </mxGeometry>
        </mxCell>
        <mxCell id="arP89rZSrupbbn2dp-Xk-163" value="" style="rounded=1;whiteSpace=wrap;html=1;fontFamily=Times New Roman;fontSize=36;strokeColor=#000000;strokeWidth=2;fillColor=none;rotation=90;" parent="1" vertex="1">
          <mxGeometry x="1577" y="646.88" width="200" height="49.5" as="geometry" />
        </mxCell>
        <mxCell id="arP89rZSrupbbn2dp-Xk-164" value="" style="ellipse;whiteSpace=wrap;html=1;aspect=fixed;fontSize=24;fillColor=#f5f5f5;strokeColor=#666666;gradientColor=#b3b3b3;" parent="1" vertex="1">
          <mxGeometry x="1657" y="579.13" width="40" height="40" as="geometry" />
        </mxCell>
        <mxCell id="arP89rZSrupbbn2dp-Xk-165" value="" style="ellipse;whiteSpace=wrap;html=1;aspect=fixed;fontSize=24;fillColor=#f5f5f5;strokeColor=#666666;gradientColor=#b3b3b3;" parent="1" vertex="1">
          <mxGeometry x="1657" y="627.13" width="40" height="40" as="geometry" />
        </mxCell>
        <mxCell id="arP89rZSrupbbn2dp-Xk-166" value="" style="ellipse;whiteSpace=wrap;html=1;aspect=fixed;fontSize=24;fillColor=#f5f5f5;strokeColor=#666666;gradientColor=#b3b3b3;" parent="1" vertex="1">
          <mxGeometry x="1657" y="675.88" width="40" height="40" as="geometry" />
        </mxCell>
        <mxCell id="arP89rZSrupbbn2dp-Xk-167" value="" style="ellipse;whiteSpace=wrap;html=1;aspect=fixed;fontSize=24;fillColor=#f5f5f5;strokeColor=#666666;gradientColor=#b3b3b3;" parent="1" vertex="1">
          <mxGeometry x="1657" y="722.88" width="40" height="40" as="geometry" />
        </mxCell>
        <mxCell id="arP89rZSrupbbn2dp-Xk-170" value="&lt;b&gt;&lt;font style=&quot;font-size: 36px;&quot;&gt;+&lt;/font&gt;&lt;/b&gt;" style="ellipse;whiteSpace=wrap;html=1;aspect=fixed;fontFamily=Times New Roman;fontSize=24;strokeWidth=4;fillColor=none;" parent="1" vertex="1">
          <mxGeometry x="1754" y="-66" width="40" height="40" as="geometry" />
        </mxCell>
        <mxCell id="arP89rZSrupbbn2dp-Xk-195" value="" style="group" parent="1" vertex="1" connectable="0">
          <mxGeometry x="1848" y="564" width="60" height="210" as="geometry" />
        </mxCell>
        <mxCell id="arP89rZSrupbbn2dp-Xk-188" value="" style="group;rotation=90;" parent="arP89rZSrupbbn2dp-Xk-195" vertex="1" connectable="0">
          <mxGeometry x="-65.5" y="85" width="191" height="50" as="geometry" />
        </mxCell>
        <mxCell id="arP89rZSrupbbn2dp-Xk-189" value="" style="ellipse;whiteSpace=wrap;html=1;aspect=fixed;fontSize=24;fillColor=#F5E8C4;strokeColor=#d6b656;rotation=90;" parent="arP89rZSrupbbn2dp-Xk-188" vertex="1">
          <mxGeometry x="76" y="-75" width="40" height="40" as="geometry" />
        </mxCell>
        <mxCell id="arP89rZSrupbbn2dp-Xk-190" value="" style="ellipse;whiteSpace=wrap;html=1;aspect=fixed;fontSize=24;fillColor=#F5E8C4;strokeColor=#d6b656;rotation=90;" parent="arP89rZSrupbbn2dp-Xk-188" vertex="1">
          <mxGeometry x="76" y="-24" width="40" height="40" as="geometry" />
        </mxCell>
        <mxCell id="arP89rZSrupbbn2dp-Xk-191" value="" style="ellipse;whiteSpace=wrap;html=1;aspect=fixed;fontSize=24;fillColor=#F5E8C4;strokeColor=#d6b656;rotation=90;" parent="arP89rZSrupbbn2dp-Xk-188" vertex="1">
          <mxGeometry x="76" y="26" width="40" height="40" as="geometry" />
        </mxCell>
        <mxCell id="arP89rZSrupbbn2dp-Xk-192" value="" style="ellipse;whiteSpace=wrap;html=1;aspect=fixed;fontSize=24;fillColor=#F5E8C4;strokeColor=#d6b656;rotation=-105;" parent="arP89rZSrupbbn2dp-Xk-188" vertex="1">
          <mxGeometry x="76" y="76" width="40" height="40" as="geometry" />
        </mxCell>
        <mxCell id="arP89rZSrupbbn2dp-Xk-187" value="" style="rounded=1;whiteSpace=wrap;html=1;fontSize=24;fillColor=none;rotation=90;" parent="arP89rZSrupbbn2dp-Xk-195" vertex="1">
          <mxGeometry x="-75" y="75" width="210" height="60" as="geometry" />
        </mxCell>
        <mxCell id="arP89rZSrupbbn2dp-Xk-196" value="" style="group" parent="1" vertex="1" connectable="0">
          <mxGeometry x="1848" y="311.75" width="60" height="210" as="geometry" />
        </mxCell>
        <mxCell id="arP89rZSrupbbn2dp-Xk-174" value="" style="rounded=1;whiteSpace=wrap;html=1;fontSize=24;fillColor=none;rotation=90;" parent="arP89rZSrupbbn2dp-Xk-196" vertex="1">
          <mxGeometry x="-75" y="75" width="210" height="60" as="geometry" />
        </mxCell>
        <mxCell id="arP89rZSrupbbn2dp-Xk-175" value="" style="group;rotation=90;" parent="arP89rZSrupbbn2dp-Xk-196" vertex="1" connectable="0">
          <mxGeometry x="-67" y="85" width="191" height="40" as="geometry" />
        </mxCell>
        <mxCell id="arP89rZSrupbbn2dp-Xk-176" value="" style="ellipse;whiteSpace=wrap;html=1;aspect=fixed;fontSize=24;fillColor=#d5e8d4;strokeColor=#82b366;rotation=90;" parent="arP89rZSrupbbn2dp-Xk-175" vertex="1">
          <mxGeometry x="76" y="-75" width="40" height="40" as="geometry" />
        </mxCell>
        <mxCell id="arP89rZSrupbbn2dp-Xk-177" value="" style="ellipse;whiteSpace=wrap;html=1;aspect=fixed;fontSize=24;fillColor=#d5e8d4;strokeColor=#82b366;rotation=90;" parent="arP89rZSrupbbn2dp-Xk-175" vertex="1">
          <mxGeometry x="76" y="-24" width="40" height="40" as="geometry" />
        </mxCell>
        <mxCell id="arP89rZSrupbbn2dp-Xk-178" value="" style="ellipse;whiteSpace=wrap;html=1;aspect=fixed;fontSize=24;fillColor=#d5e8d4;strokeColor=#82b366;rotation=90;" parent="arP89rZSrupbbn2dp-Xk-175" vertex="1">
          <mxGeometry x="76" y="26" width="40" height="40" as="geometry" />
        </mxCell>
        <mxCell id="arP89rZSrupbbn2dp-Xk-179" value="" style="ellipse;whiteSpace=wrap;html=1;aspect=fixed;fontSize=24;fillColor=#d5e8d4;strokeColor=#82b366;rotation=135;" parent="arP89rZSrupbbn2dp-Xk-175" vertex="1">
          <mxGeometry x="76" y="76" width="40" height="40" as="geometry" />
        </mxCell>
        <mxCell id="bRp7wZ5MDCs9pwji7JOl-6" style="edgeStyle=orthogonalEdgeStyle;rounded=0;orthogonalLoop=1;jettySize=auto;html=1;exitX=0.75;exitY=1;exitDx=0;exitDy=0;entryX=-0.006;entryY=0.548;entryDx=0;entryDy=0;entryPerimeter=0;strokeWidth=2;fontFamily=Times New Roman;fontSize=36;endArrow=none;endFill=0;" parent="1" source="arP89rZSrupbbn2dp-Xk-197" target="arP89rZSrupbbn2dp-Xk-200" edge="1">
          <mxGeometry relative="1" as="geometry" />
        </mxCell>
        <mxCell id="arP89rZSrupbbn2dp-Xk-197" value="" style="shape=curlyBracket;whiteSpace=wrap;html=1;rounded=1;fontFamily=Times New Roman;fontSize=26;strokeColor=#000000;strokeWidth=3;fillColor=none;size=0.5;" parent="1" vertex="1">
          <mxGeometry x="1790" y="-194" width="77" height="300" as="geometry" />
        </mxCell>
        <mxCell id="arP89rZSrupbbn2dp-Xk-199" value="" style="group" parent="1" vertex="1" connectable="0">
          <mxGeometry x="1871" y="-9" width="60" height="210" as="geometry" />
        </mxCell>
        <mxCell id="arP89rZSrupbbn2dp-Xk-200" value="" style="rounded=1;whiteSpace=wrap;html=1;fontFamily=Times New Roman;fontSize=36;strokeWidth=2;fillColor=none;strokeColor=#000000;" parent="arP89rZSrupbbn2dp-Xk-199" vertex="1">
          <mxGeometry width="60" height="210" as="geometry" />
        </mxCell>
        <mxCell id="arP89rZSrupbbn2dp-Xk-201" value="" style="ellipse;whiteSpace=wrap;html=1;aspect=fixed;fontSize=24;fillColor=#f8cecc;strokeColor=#b85450;rotation=-90;" parent="arP89rZSrupbbn2dp-Xk-199" vertex="1">
          <mxGeometry x="9.799999999999955" y="10.000000000000028" width="40.4" height="40.4" as="geometry" />
        </mxCell>
        <mxCell id="arP89rZSrupbbn2dp-Xk-202" value="" style="ellipse;whiteSpace=wrap;html=1;aspect=fixed;fontSize=24;fillColor=#f8cecc;strokeColor=#b85450;rotation=-90;" parent="arP89rZSrupbbn2dp-Xk-199" vertex="1">
          <mxGeometry x="9.8" y="60.2" width="40.2" height="40.2" as="geometry" />
        </mxCell>
        <mxCell id="arP89rZSrupbbn2dp-Xk-203" value="" style="ellipse;whiteSpace=wrap;html=1;aspect=fixed;fontSize=24;fillColor=#f8cecc;strokeColor=#b85450;rotation=-90;" parent="arP89rZSrupbbn2dp-Xk-199" vertex="1">
          <mxGeometry x="9.8" y="107.6" width="41.4" height="41.4" as="geometry" />
        </mxCell>
        <mxCell id="arP89rZSrupbbn2dp-Xk-204" value="" style="ellipse;whiteSpace=wrap;html=1;aspect=fixed;fontSize=24;fillColor=#f8cecc;strokeColor=#b85450;rotation=-90;" parent="arP89rZSrupbbn2dp-Xk-199" vertex="1">
          <mxGeometry x="9.799999999999955" y="159.80000000000004" width="40.4" height="40.4" as="geometry" />
        </mxCell>
        <mxCell id="arP89rZSrupbbn2dp-Xk-218" style="edgeStyle=none;rounded=0;sketch=0;orthogonalLoop=1;jettySize=auto;html=1;exitX=0.5;exitY=0;exitDx=0;exitDy=0;fontFamily=Times New Roman;fontSize=26;startArrow=none;startFill=0;endArrow=classic;endFill=1;endSize=3;strokeColor=#000000;strokeWidth=3;elbow=vertical;" parent="1" source="arP89rZSrupbbn2dp-Xk-207" target="arP89rZSrupbbn2dp-Xk-217" edge="1">
          <mxGeometry relative="1" as="geometry" />
        </mxCell>
        <mxCell id="arP89rZSrupbbn2dp-Xk-207" value="" style="rounded=1;whiteSpace=wrap;html=1;fontFamily=Times New Roman;fontSize=26;strokeColor=#6c8ebf;strokeWidth=2;fillColor=#8FAADC;rotation=90;" parent="1" vertex="1">
          <mxGeometry x="1874" y="233.25" width="681.88" height="74.5" as="geometry" />
        </mxCell>
        <mxCell id="arP89rZSrupbbn2dp-Xk-209" value="" style="shape=curlyBracket;whiteSpace=wrap;html=1;rounded=1;flipH=1;fontFamily=Times New Roman;fontSize=26;strokeColor=#000000;strokeWidth=3;fillColor=none;" parent="1" vertex="1">
          <mxGeometry x="2010" y="-210" width="172" height="931" as="geometry" />
        </mxCell>
        <mxCell id="arP89rZSrupbbn2dp-Xk-210" style="sketch=0;orthogonalLoop=1;jettySize=auto;html=1;exitX=1;exitY=0.5;exitDx=0;exitDy=0;fontFamily=Times New Roman;fontSize=26;startArrow=none;startFill=0;endArrow=classic;endFill=1;endSize=7;strokeColor=#000000;strokeWidth=3;elbow=vertical;entryX=0.509;entryY=0.329;entryDx=0;entryDy=0;entryPerimeter=0;" parent="1" source="arP89rZSrupbbn2dp-Xk-200" target="arP89rZSrupbbn2dp-Xk-209" edge="1">
          <mxGeometry relative="1" as="geometry">
            <mxPoint x="2088" y="96" as="targetPoint" />
          </mxGeometry>
        </mxCell>
        <mxCell id="arP89rZSrupbbn2dp-Xk-211" style="sketch=0;orthogonalLoop=1;jettySize=auto;html=1;fontFamily=Times New Roman;fontSize=26;startArrow=none;startFill=0;endArrow=none;endFill=0;endSize=3;strokeColor=#000000;strokeWidth=3;elbow=vertical;rounded=0;exitX=1;exitY=0.25;exitDx=0;exitDy=0;" parent="1" source="arP89rZSrupbbn2dp-Xk-147" edge="1">
          <mxGeometry relative="1" as="geometry">
            <mxPoint x="1918" y="-182" as="sourcePoint" />
            <mxPoint x="2080" y="-210" as="targetPoint" />
            <Array as="points" />
          </mxGeometry>
        </mxCell>
        <mxCell id="arP89rZSrupbbn2dp-Xk-212" style="edgeStyle=none;rounded=0;sketch=0;orthogonalLoop=1;jettySize=auto;html=1;exitX=0.5;exitY=0;exitDx=0;exitDy=0;entryX=0.514;entryY=0.675;entryDx=0;entryDy=0;entryPerimeter=0;fontFamily=Times New Roman;fontSize=26;startArrow=none;startFill=0;endArrow=classic;endFill=1;endSize=3;strokeColor=#000000;strokeWidth=3;elbow=vertical;" parent="1" source="arP89rZSrupbbn2dp-Xk-174" target="arP89rZSrupbbn2dp-Xk-209" edge="1">
          <mxGeometry relative="1" as="geometry" />
        </mxCell>
        <mxCell id="arP89rZSrupbbn2dp-Xk-213" style="edgeStyle=none;rounded=0;sketch=0;orthogonalLoop=1;jettySize=auto;html=1;exitX=0.75;exitY=0;exitDx=0;exitDy=0;entryX=0.874;entryY=1;entryDx=0;entryDy=0;entryPerimeter=0;fontFamily=Times New Roman;fontSize=26;startArrow=none;startFill=0;endArrow=classic;endFill=1;endSize=3;strokeColor=#000000;strokeWidth=2;elbow=vertical;" parent="1" source="arP89rZSrupbbn2dp-Xk-187" target="arP89rZSrupbbn2dp-Xk-209" edge="1">
          <mxGeometry relative="1" as="geometry" />
        </mxCell>
        <mxCell id="arP89rZSrupbbn2dp-Xk-216" value="&lt;b&gt;&lt;font style=&quot;font-size: 41px;&quot;&gt;Concatenate&lt;/font&gt;&lt;/b&gt;" style="text;html=1;strokeColor=none;fillColor=none;align=center;verticalAlign=middle;whiteSpace=wrap;rounded=0;fontFamily=Times New Roman;fontSize=26;rotation=90;" parent="1" vertex="1">
          <mxGeometry x="2110" y="116" width="60" height="30" as="geometry" />
        </mxCell>
        <mxCell id="arP89rZSrupbbn2dp-Xk-223" style="edgeStyle=none;rounded=0;sketch=0;orthogonalLoop=1;jettySize=auto;html=1;exitX=0.5;exitY=0;exitDx=0;exitDy=0;entryX=0.5;entryY=1;entryDx=0;entryDy=0;fontFamily=Times New Roman;fontSize=26;startArrow=none;startFill=0;endArrow=classic;endFill=1;endSize=3;strokeColor=#000000;strokeWidth=3;elbow=vertical;" parent="1" source="arP89rZSrupbbn2dp-Xk-217" target="arP89rZSrupbbn2dp-Xk-222" edge="1">
          <mxGeometry relative="1" as="geometry" />
        </mxCell>
        <mxCell id="arP89rZSrupbbn2dp-Xk-217" value="" style="rounded=1;whiteSpace=wrap;html=1;fontFamily=Times New Roman;fontSize=26;strokeColor=#6c8ebf;strokeWidth=2;fillColor=#8FAADC;rotation=90;" parent="1" vertex="1">
          <mxGeometry x="2240" y="251.62" width="250" height="37.75" as="geometry" />
        </mxCell>
        <mxCell id="arP89rZSrupbbn2dp-Xk-219" value="&lt;b&gt;&lt;font style=&quot;font-size: 40px;&quot;&gt;Fully-connected&lt;/font&gt;&lt;/b&gt;" style="text;html=1;strokeColor=none;fillColor=none;align=center;verticalAlign=middle;whiteSpace=wrap;rounded=0;fontFamily=Times New Roman;fontSize=26;rotation=90;" parent="1" vertex="1">
          <mxGeometry x="2140" y="25.62" width="310" height="106" as="geometry" />
        </mxCell>
        <mxCell id="arP89rZSrupbbn2dp-Xk-220" value="K" style="text;html=1;strokeColor=none;fillColor=none;align=center;verticalAlign=middle;whiteSpace=wrap;rounded=0;fontFamily=Times New Roman;fontSize=26;" parent="1" vertex="1">
          <mxGeometry x="2338" y="407" width="60" height="30" as="geometry" />
        </mxCell>
        <mxCell id="arP89rZSrupbbn2dp-Xk-222" value="" style="rounded=1;whiteSpace=wrap;html=1;fontFamily=Times New Roman;fontSize=26;strokeColor=#6c8ebf;strokeWidth=2;fillColor=#8FAADC;rotation=90;" parent="1" vertex="1">
          <mxGeometry x="2420" y="257.5" width="102" height="26" as="geometry" />
        </mxCell>
        <mxCell id="arP89rZSrupbbn2dp-Xk-224" value="&lt;b&gt;&lt;font style=&quot;font-size: 40px;&quot;&gt;Softmax&lt;/font&gt;&lt;/b&gt;" style="text;html=1;strokeColor=none;fillColor=none;align=center;verticalAlign=middle;whiteSpace=wrap;rounded=0;fontFamily=Times New Roman;fontSize=26;rotation=90;strokeWidth=3;" parent="1" vertex="1">
          <mxGeometry x="2336" y="110" width="180" height="110" as="geometry" />
        </mxCell>
        <mxCell id="arP89rZSrupbbn2dp-Xk-225" value="1" style="text;html=1;strokeColor=none;fillColor=none;align=center;verticalAlign=middle;whiteSpace=wrap;rounded=0;fontFamily=Times New Roman;fontSize=26;" parent="1" vertex="1">
          <mxGeometry x="2441" y="322" width="60" height="30" as="geometry" />
        </mxCell>
        <mxCell id="arP89rZSrupbbn2dp-Xk-228" value="" style="group" parent="1" vertex="1" connectable="0">
          <mxGeometry x="1302.5" y="400" width="210" height="60" as="geometry" />
        </mxCell>
        <mxCell id="HhYw5Z5-gJKjL5FxkoDt-24" value="" style="rounded=1;whiteSpace=wrap;html=1;fontSize=24;fillColor=none;" parent="arP89rZSrupbbn2dp-Xk-228" vertex="1">
          <mxGeometry width="210" height="60" as="geometry" />
        </mxCell>
        <mxCell id="HhYw5Z5-gJKjL5FxkoDt-25" value="" style="group" parent="arP89rZSrupbbn2dp-Xk-228" vertex="1" connectable="0">
          <mxGeometry x="8" y="10" width="191" height="40" as="geometry" />
        </mxCell>
        <mxCell id="HhYw5Z5-gJKjL5FxkoDt-15" value="" style="ellipse;whiteSpace=wrap;html=1;aspect=fixed;fontSize=24;fillColor=#94CB82;strokeColor=#82b366;" parent="HhYw5Z5-gJKjL5FxkoDt-25" vertex="1">
          <mxGeometry width="40" height="40" as="geometry" />
        </mxCell>
        <mxCell id="HhYw5Z5-gJKjL5FxkoDt-19" value="" style="ellipse;whiteSpace=wrap;html=1;aspect=fixed;fontSize=24;fillColor=#d5e8d4;strokeColor=#82b366;" parent="HhYw5Z5-gJKjL5FxkoDt-25" vertex="1">
          <mxGeometry x="51" width="40" height="40" as="geometry" />
        </mxCell>
        <mxCell id="HhYw5Z5-gJKjL5FxkoDt-20" value="" style="ellipse;whiteSpace=wrap;html=1;aspect=fixed;fontSize=24;fillColor=#d5e8d4;strokeColor=#82b366;" parent="HhYw5Z5-gJKjL5FxkoDt-25" vertex="1">
          <mxGeometry x="102" width="40" height="40" as="geometry" />
        </mxCell>
        <mxCell id="HhYw5Z5-gJKjL5FxkoDt-21" value="" style="ellipse;whiteSpace=wrap;html=1;aspect=fixed;fontSize=24;fillColor=#d5e8d4;strokeColor=#82b366;" parent="HhYw5Z5-gJKjL5FxkoDt-25" vertex="1">
          <mxGeometry x="152" width="40" height="40" as="geometry" />
        </mxCell>
        <mxCell id="arP89rZSrupbbn2dp-Xk-229" value="" style="group" parent="1" vertex="1" connectable="0">
          <mxGeometry x="569" y="-234" width="210" height="60" as="geometry" />
        </mxCell>
        <mxCell id="arP89rZSrupbbn2dp-Xk-230" value="" style="rounded=1;whiteSpace=wrap;html=1;fontSize=24;fillColor=none;" parent="arP89rZSrupbbn2dp-Xk-229" vertex="1">
          <mxGeometry width="210" height="60" as="geometry" />
        </mxCell>
        <mxCell id="arP89rZSrupbbn2dp-Xk-231" value="" style="group" parent="arP89rZSrupbbn2dp-Xk-229" vertex="1" connectable="0">
          <mxGeometry x="8" y="10" width="191" height="40" as="geometry" />
        </mxCell>
        <mxCell id="arP89rZSrupbbn2dp-Xk-232" value="" style="ellipse;whiteSpace=wrap;html=1;aspect=fixed;fontSize=24;fillColor=#dae8fc;strokeColor=#6c8ebf;" parent="arP89rZSrupbbn2dp-Xk-231" vertex="1">
          <mxGeometry width="40" height="40" as="geometry" />
        </mxCell>
        <mxCell id="arP89rZSrupbbn2dp-Xk-233" value="" style="ellipse;whiteSpace=wrap;html=1;aspect=fixed;fontSize=24;fillColor=#dae8fc;strokeColor=#6c8ebf;" parent="arP89rZSrupbbn2dp-Xk-231" vertex="1">
          <mxGeometry x="51" width="40" height="40" as="geometry" />
        </mxCell>
        <mxCell id="arP89rZSrupbbn2dp-Xk-234" value="" style="ellipse;whiteSpace=wrap;html=1;aspect=fixed;fontSize=24;fillColor=#dae8fc;strokeColor=#6c8ebf;" parent="arP89rZSrupbbn2dp-Xk-231" vertex="1">
          <mxGeometry x="101" width="40" height="40" as="geometry" />
        </mxCell>
        <mxCell id="arP89rZSrupbbn2dp-Xk-235" value="" style="ellipse;whiteSpace=wrap;html=1;aspect=fixed;fontSize=24;fillColor=#dae8fc;strokeColor=#6c8ebf;" parent="arP89rZSrupbbn2dp-Xk-231" vertex="1">
          <mxGeometry x="151" width="40" height="40" as="geometry" />
        </mxCell>
        <mxCell id="arP89rZSrupbbn2dp-Xk-237" value="" style="group" parent="1" vertex="1" connectable="0">
          <mxGeometry x="569" y="-169" width="210" height="60" as="geometry" />
        </mxCell>
        <mxCell id="arP89rZSrupbbn2dp-Xk-238" value="" style="rounded=1;whiteSpace=wrap;html=1;fontSize=24;fillColor=none;" parent="arP89rZSrupbbn2dp-Xk-237" vertex="1">
          <mxGeometry width="210" height="60" as="geometry" />
        </mxCell>
        <mxCell id="arP89rZSrupbbn2dp-Xk-239" value="" style="group" parent="arP89rZSrupbbn2dp-Xk-237" vertex="1" connectable="0">
          <mxGeometry x="8" y="10" width="191" height="40" as="geometry" />
        </mxCell>
        <mxCell id="arP89rZSrupbbn2dp-Xk-240" value="" style="ellipse;whiteSpace=wrap;html=1;aspect=fixed;fontSize=24;fillColor=#dae8fc;strokeColor=#6c8ebf;" parent="arP89rZSrupbbn2dp-Xk-239" vertex="1">
          <mxGeometry width="40" height="40" as="geometry" />
        </mxCell>
        <mxCell id="arP89rZSrupbbn2dp-Xk-241" value="" style="ellipse;whiteSpace=wrap;html=1;aspect=fixed;fontSize=24;fillColor=#dae8fc;strokeColor=#6c8ebf;" parent="arP89rZSrupbbn2dp-Xk-239" vertex="1">
          <mxGeometry x="51" width="40" height="40" as="geometry" />
        </mxCell>
        <mxCell id="arP89rZSrupbbn2dp-Xk-242" value="" style="ellipse;whiteSpace=wrap;html=1;aspect=fixed;fontSize=24;fillColor=#dae8fc;strokeColor=#6c8ebf;" parent="arP89rZSrupbbn2dp-Xk-239" vertex="1">
          <mxGeometry x="101" width="40" height="40" as="geometry" />
        </mxCell>
        <mxCell id="arP89rZSrupbbn2dp-Xk-243" value="" style="ellipse;whiteSpace=wrap;html=1;aspect=fixed;fontSize=24;fillColor=#dae8fc;strokeColor=#6c8ebf;" parent="arP89rZSrupbbn2dp-Xk-239" vertex="1">
          <mxGeometry x="151" width="40" height="40" as="geometry" />
        </mxCell>
        <mxCell id="arP89rZSrupbbn2dp-Xk-244" value="" style="group" parent="1" vertex="1" connectable="0">
          <mxGeometry x="569" y="-98" width="210" height="60" as="geometry" />
        </mxCell>
        <mxCell id="arP89rZSrupbbn2dp-Xk-245" value="" style="rounded=1;whiteSpace=wrap;html=1;fontSize=24;fillColor=none;" parent="arP89rZSrupbbn2dp-Xk-244" vertex="1">
          <mxGeometry width="210" height="60" as="geometry" />
        </mxCell>
        <mxCell id="arP89rZSrupbbn2dp-Xk-246" value="" style="group" parent="arP89rZSrupbbn2dp-Xk-244" vertex="1" connectable="0">
          <mxGeometry x="8" y="10" width="191" height="40" as="geometry" />
        </mxCell>
        <mxCell id="arP89rZSrupbbn2dp-Xk-247" value="" style="ellipse;whiteSpace=wrap;html=1;aspect=fixed;fontSize=24;fillColor=#dae8fc;strokeColor=#6c8ebf;" parent="arP89rZSrupbbn2dp-Xk-246" vertex="1">
          <mxGeometry width="40" height="40" as="geometry" />
        </mxCell>
        <mxCell id="arP89rZSrupbbn2dp-Xk-248" value="" style="ellipse;whiteSpace=wrap;html=1;aspect=fixed;fontSize=24;fillColor=#dae8fc;strokeColor=#6c8ebf;" parent="arP89rZSrupbbn2dp-Xk-246" vertex="1">
          <mxGeometry x="51" width="40" height="40" as="geometry" />
        </mxCell>
        <mxCell id="arP89rZSrupbbn2dp-Xk-249" value="" style="ellipse;whiteSpace=wrap;html=1;aspect=fixed;fontSize=24;fillColor=#dae8fc;strokeColor=#6c8ebf;" parent="arP89rZSrupbbn2dp-Xk-246" vertex="1">
          <mxGeometry x="101" width="40" height="40" as="geometry" />
        </mxCell>
        <mxCell id="arP89rZSrupbbn2dp-Xk-250" value="" style="ellipse;whiteSpace=wrap;html=1;aspect=fixed;fontSize=24;fillColor=#dae8fc;strokeColor=#6c8ebf;" parent="arP89rZSrupbbn2dp-Xk-246" vertex="1">
          <mxGeometry x="151" width="40" height="40" as="geometry" />
        </mxCell>
        <mxCell id="arP89rZSrupbbn2dp-Xk-251" value="" style="group" parent="1" vertex="1" connectable="0">
          <mxGeometry x="569" y="11" width="210" height="60" as="geometry" />
        </mxCell>
        <mxCell id="arP89rZSrupbbn2dp-Xk-252" value="" style="rounded=1;whiteSpace=wrap;html=1;fontSize=24;fillColor=none;" parent="arP89rZSrupbbn2dp-Xk-251" vertex="1">
          <mxGeometry width="210" height="60" as="geometry" />
        </mxCell>
        <mxCell id="arP89rZSrupbbn2dp-Xk-253" value="" style="group" parent="arP89rZSrupbbn2dp-Xk-251" vertex="1" connectable="0">
          <mxGeometry x="8" y="10" width="191" height="40" as="geometry" />
        </mxCell>
        <mxCell id="arP89rZSrupbbn2dp-Xk-254" value="" style="ellipse;whiteSpace=wrap;html=1;aspect=fixed;fontSize=24;fillColor=#f8cecc;strokeColor=#b85450;" parent="arP89rZSrupbbn2dp-Xk-253" vertex="1">
          <mxGeometry width="40" height="40" as="geometry" />
        </mxCell>
        <mxCell id="arP89rZSrupbbn2dp-Xk-255" value="" style="ellipse;whiteSpace=wrap;html=1;aspect=fixed;fontSize=24;fillColor=#f8cecc;strokeColor=#b85450;" parent="arP89rZSrupbbn2dp-Xk-253" vertex="1">
          <mxGeometry x="51" width="40" height="40" as="geometry" />
        </mxCell>
        <mxCell id="arP89rZSrupbbn2dp-Xk-256" value="" style="ellipse;whiteSpace=wrap;html=1;aspect=fixed;fontSize=24;fillColor=#f8cecc;strokeColor=#b85450;" parent="arP89rZSrupbbn2dp-Xk-253" vertex="1">
          <mxGeometry x="101" width="40" height="40" as="geometry" />
        </mxCell>
        <mxCell id="arP89rZSrupbbn2dp-Xk-257" value="" style="ellipse;whiteSpace=wrap;html=1;aspect=fixed;fontSize=24;fillColor=#f8cecc;strokeColor=#b85450;" parent="arP89rZSrupbbn2dp-Xk-253" vertex="1">
          <mxGeometry x="151" width="40" height="40" as="geometry" />
        </mxCell>
        <mxCell id="arP89rZSrupbbn2dp-Xk-258" value="" style="group;fillColor=#f8cecc;strokeColor=#b85450;" parent="1" vertex="1" connectable="0">
          <mxGeometry x="569" y="124" width="210" height="60" as="geometry" />
        </mxCell>
        <mxCell id="arP89rZSrupbbn2dp-Xk-259" value="" style="rounded=1;whiteSpace=wrap;html=1;fontSize=24;fillColor=none;" parent="arP89rZSrupbbn2dp-Xk-258" vertex="1">
          <mxGeometry width="210" height="60" as="geometry" />
        </mxCell>
        <mxCell id="arP89rZSrupbbn2dp-Xk-260" value="" style="group" parent="arP89rZSrupbbn2dp-Xk-258" vertex="1" connectable="0">
          <mxGeometry x="8" y="10" width="191" height="40" as="geometry" />
        </mxCell>
        <mxCell id="arP89rZSrupbbn2dp-Xk-261" value="" style="ellipse;whiteSpace=wrap;html=1;aspect=fixed;fontSize=24;fillColor=#f8cecc;strokeColor=#b85450;" parent="arP89rZSrupbbn2dp-Xk-260" vertex="1">
          <mxGeometry width="40" height="40" as="geometry" />
        </mxCell>
        <mxCell id="arP89rZSrupbbn2dp-Xk-262" value="" style="ellipse;whiteSpace=wrap;html=1;aspect=fixed;fontSize=24;fillColor=#f8cecc;strokeColor=#b85450;" parent="arP89rZSrupbbn2dp-Xk-260" vertex="1">
          <mxGeometry x="51" width="40" height="40" as="geometry" />
        </mxCell>
        <mxCell id="arP89rZSrupbbn2dp-Xk-263" value="" style="ellipse;whiteSpace=wrap;html=1;aspect=fixed;fontSize=24;fillColor=#f8cecc;strokeColor=#b85450;" parent="arP89rZSrupbbn2dp-Xk-260" vertex="1">
          <mxGeometry x="101" width="40" height="40" as="geometry" />
        </mxCell>
        <mxCell id="arP89rZSrupbbn2dp-Xk-264" value="" style="ellipse;whiteSpace=wrap;html=1;aspect=fixed;fontSize=24;fillColor=#f8cecc;strokeColor=#b85450;" parent="arP89rZSrupbbn2dp-Xk-260" vertex="1">
          <mxGeometry x="151" width="40" height="40" as="geometry" />
        </mxCell>
        <mxCell id="arP89rZSrupbbn2dp-Xk-269" value="&lt;b&gt;...&lt;/b&gt;" style="text;html=1;strokeColor=none;fillColor=none;align=center;verticalAlign=middle;whiteSpace=wrap;rounded=0;fontFamily=Times New Roman;fontSize=36;" parent="1" vertex="1">
          <mxGeometry x="643" y="-37" width="60" height="30" as="geometry" />
        </mxCell>
        <mxCell id="bRp7wZ5MDCs9pwji7JOl-8" style="edgeStyle=orthogonalEdgeStyle;rounded=0;orthogonalLoop=1;jettySize=auto;html=1;exitX=0.014;exitY=0.339;exitDx=0;exitDy=0;entryX=0.974;entryY=0.002;entryDx=0;entryDy=0;entryPerimeter=0;strokeWidth=2;fontFamily=Times New Roman;fontSize=36;endArrow=none;endFill=0;exitPerimeter=0;" parent="1" edge="1">
          <mxGeometry relative="1" as="geometry">
            <mxPoint x="1873.84" y="-193.80999999999995" as="sourcePoint" />
            <mxPoint x="1865.492" y="-193.39999999999998" as="targetPoint" />
          </mxGeometry>
        </mxCell>
        <mxCell id="arP89rZSrupbbn2dp-Xk-158" value="&lt;font size=&quot;1&quot; style=&quot;&quot;&gt;&lt;b style=&quot;font-size: 43px;&quot;&gt;Attention&lt;/b&gt;&lt;/font&gt;" style="rounded=1;whiteSpace=wrap;html=1;fontFamily=Times New Roman;fontSize=36;strokeWidth=2;" parent="1" vertex="1">
          <mxGeometry x="1460" y="261.5" width="180.5" height="85" as="geometry" />
        </mxCell>
        <mxCell id="bRp7wZ5MDCs9pwji7JOl-17" value="" style="sketch=0;orthogonalLoop=1;jettySize=auto;html=1;fontFamily=Times New Roman;fontSize=36;startArrow=none;startFill=0;endArrow=none;endFill=1;endSize=7;strokeWidth=3;elbow=vertical;dashed=1;strokeColor=#4D4D4D;" parent="1" edge="1">
          <mxGeometry relative="1" as="geometry">
            <mxPoint x="1580" y="240" as="targetPoint" />
            <mxPoint x="1580" y="-100" as="sourcePoint" />
          </mxGeometry>
        </mxCell>
        <mxCell id="bRp7wZ5MDCs9pwji7JOl-18" value="" style="rounded=0;whiteSpace=wrap;html=1;fontSize=24;fillColor=#94CB82;strokeColor=#82b366;" parent="1" vertex="1">
          <mxGeometry x="660" y="486" width="50" height="50" as="geometry" />
        </mxCell>
        <mxCell id="jN2qrviirmYu155-mYuK-2" value="" style="edgeStyle=orthogonalEdgeStyle;rounded=0;orthogonalLoop=1;jettySize=auto;html=1;" parent="1" source="bRp7wZ5MDCs9pwji7JOl-19" target="bRp7wZ5MDCs9pwji7JOl-20" edge="1">
          <mxGeometry relative="1" as="geometry" />
        </mxCell>
        <mxCell id="bRp7wZ5MDCs9pwji7JOl-19" value="" style="rounded=0;whiteSpace=wrap;html=1;fontSize=24;fillColor=#94CB82;strokeColor=#82b366;" parent="1" vertex="1">
          <mxGeometry x="735" y="486" width="50" height="50" as="geometry" />
        </mxCell>
        <mxCell id="bRp7wZ5MDCs9pwji7JOl-20" value="" style="rounded=0;whiteSpace=wrap;html=1;fontSize=24;fillColor=#94CB82;strokeColor=#82b366;" parent="1" vertex="1">
          <mxGeometry x="810" y="486" width="50" height="50" as="geometry" />
        </mxCell>
        <mxCell id="rSC-oQ76qF_qCHtcjeeN-1" value="" style="group;fillColor=#f8cecc;strokeColor=#b85450;" parent="1" vertex="1" connectable="0">
          <mxGeometry x="568" y="201.5" width="210" height="60" as="geometry" />
        </mxCell>
        <mxCell id="rSC-oQ76qF_qCHtcjeeN-2" value="" style="rounded=1;whiteSpace=wrap;html=1;fontSize=24;fillColor=none;" parent="rSC-oQ76qF_qCHtcjeeN-1" vertex="1">
          <mxGeometry width="210" height="60" as="geometry" />
        </mxCell>
        <mxCell id="rSC-oQ76qF_qCHtcjeeN-3" value="" style="group" parent="rSC-oQ76qF_qCHtcjeeN-1" vertex="1" connectable="0">
          <mxGeometry x="8" y="10" width="191" height="40" as="geometry" />
        </mxCell>
        <mxCell id="rSC-oQ76qF_qCHtcjeeN-4" value="" style="ellipse;whiteSpace=wrap;html=1;aspect=fixed;fontSize=24;fillColor=#f8cecc;strokeColor=#b85450;" parent="rSC-oQ76qF_qCHtcjeeN-3" vertex="1">
          <mxGeometry width="40" height="40" as="geometry" />
        </mxCell>
        <mxCell id="rSC-oQ76qF_qCHtcjeeN-5" value="" style="ellipse;whiteSpace=wrap;html=1;aspect=fixed;fontSize=24;fillColor=#f8cecc;strokeColor=#b85450;" parent="rSC-oQ76qF_qCHtcjeeN-3" vertex="1">
          <mxGeometry x="51" width="40" height="40" as="geometry" />
        </mxCell>
        <mxCell id="rSC-oQ76qF_qCHtcjeeN-6" value="" style="ellipse;whiteSpace=wrap;html=1;aspect=fixed;fontSize=24;fillColor=#f8cecc;strokeColor=#b85450;" parent="rSC-oQ76qF_qCHtcjeeN-3" vertex="1">
          <mxGeometry x="101" width="40" height="40" as="geometry" />
        </mxCell>
        <mxCell id="rSC-oQ76qF_qCHtcjeeN-7" value="" style="ellipse;whiteSpace=wrap;html=1;aspect=fixed;fontSize=24;fillColor=#f8cecc;strokeColor=#b85450;" parent="rSC-oQ76qF_qCHtcjeeN-3" vertex="1">
          <mxGeometry x="151" width="40" height="40" as="geometry" />
        </mxCell>
        <mxCell id="e01b3pUl95MMTs82BliH-24" value="" style="group;rotation=-90;" parent="1" vertex="1" connectable="0">
          <mxGeometry x="1266.5" y="-182" width="234" height="210" as="geometry" />
        </mxCell>
        <mxCell id="e01b3pUl95MMTs82BliH-9" value="" style="rounded=0;whiteSpace=wrap;html=1;fillColor=none;dashed=1;strokeWidth=2;rotation=0;" parent="e01b3pUl95MMTs82BliH-24" vertex="1">
          <mxGeometry x="30" y="-50" width="170" height="260" as="geometry" />
        </mxCell>
        <mxCell id="e01b3pUl95MMTs82BliH-10" value="" style="group;fillColor=#f8cecc;strokeColor=#b85450;rotation=-90;" parent="e01b3pUl95MMTs82BliH-24" vertex="1" connectable="0">
          <mxGeometry x="-26" y="53" width="210" height="60" as="geometry" />
        </mxCell>
        <mxCell id="e01b3pUl95MMTs82BliH-11" value="" style="rounded=1;whiteSpace=wrap;html=1;fontSize=24;fillColor=none;rotation=-90;" parent="e01b3pUl95MMTs82BliH-10" vertex="1">
          <mxGeometry width="210" height="60" as="geometry" />
        </mxCell>
        <mxCell id="e01b3pUl95MMTs82BliH-12" value="" style="group;rotation=-90;" parent="e01b3pUl95MMTs82BliH-10" vertex="1" connectable="0">
          <mxGeometry x="10" y="12" width="191" height="40" as="geometry" />
        </mxCell>
        <mxCell id="e01b3pUl95MMTs82BliH-13" value="" style="ellipse;whiteSpace=wrap;html=1;aspect=fixed;fontSize=24;fillColor=#f8cecc;strokeColor=#b85450;rotation=-90;" parent="e01b3pUl95MMTs82BliH-12" vertex="1">
          <mxGeometry x="76" y="76" width="40" height="40" as="geometry" />
        </mxCell>
        <mxCell id="e01b3pUl95MMTs82BliH-14" value="" style="ellipse;whiteSpace=wrap;html=1;aspect=fixed;fontSize=24;fillColor=#dae8fc;strokeColor=#6c8ebf;rotation=-90;" parent="e01b3pUl95MMTs82BliH-12" vertex="1">
          <mxGeometry x="76" y="25" width="40" height="40" as="geometry" />
        </mxCell>
        <mxCell id="e01b3pUl95MMTs82BliH-15" value="" style="ellipse;whiteSpace=wrap;html=1;aspect=fixed;fontSize=24;fillColor=#f8cecc;strokeColor=#b85450;rotation=-90;" parent="e01b3pUl95MMTs82BliH-12" vertex="1">
          <mxGeometry x="76" y="-25" width="40" height="40" as="geometry" />
        </mxCell>
        <mxCell id="e01b3pUl95MMTs82BliH-16" value="" style="ellipse;whiteSpace=wrap;html=1;aspect=fixed;fontSize=24;fillColor=#f8cecc;strokeColor=#b85450;rotation=-90;" parent="e01b3pUl95MMTs82BliH-12" vertex="1">
          <mxGeometry x="76" y="-75" width="40" height="40" as="geometry" />
        </mxCell>
        <mxCell id="e01b3pUl95MMTs82BliH-17" value="" style="group;fillColor=#f8cecc;strokeColor=#b85450;rotation=-90;" parent="e01b3pUl95MMTs82BliH-24" vertex="1" connectable="0">
          <mxGeometry x="52" y="54" width="210" height="60" as="geometry" />
        </mxCell>
        <mxCell id="e01b3pUl95MMTs82BliH-18" value="" style="rounded=1;whiteSpace=wrap;html=1;fontSize=24;fillColor=none;rotation=-90;" parent="e01b3pUl95MMTs82BliH-17" vertex="1">
          <mxGeometry width="210" height="60" as="geometry" />
        </mxCell>
        <mxCell id="e01b3pUl95MMTs82BliH-19" value="" style="group;rotation=-90;" parent="e01b3pUl95MMTs82BliH-17" vertex="1" connectable="0">
          <mxGeometry x="10" y="12" width="191" height="40" as="geometry" />
        </mxCell>
        <mxCell id="e01b3pUl95MMTs82BliH-20" value="" style="ellipse;whiteSpace=wrap;html=1;aspect=fixed;fontSize=24;fillColor=#f8cecc;strokeColor=#b85450;rotation=-90;" parent="e01b3pUl95MMTs82BliH-19" vertex="1">
          <mxGeometry x="76" y="76" width="40" height="40" as="geometry" />
        </mxCell>
        <mxCell id="e01b3pUl95MMTs82BliH-21" value="" style="ellipse;whiteSpace=wrap;html=1;aspect=fixed;fontSize=24;fillColor=#f8cecc;strokeColor=#b85450;rotation=-90;" parent="e01b3pUl95MMTs82BliH-19" vertex="1">
          <mxGeometry x="76" y="25" width="40" height="40" as="geometry" />
        </mxCell>
        <mxCell id="e01b3pUl95MMTs82BliH-22" value="" style="ellipse;whiteSpace=wrap;html=1;aspect=fixed;fontSize=24;fillColor=#dae8fc;strokeColor=#6c8ebf;rotation=-90;" parent="e01b3pUl95MMTs82BliH-19" vertex="1">
          <mxGeometry x="76" y="-25" width="40" height="40" as="geometry" />
        </mxCell>
        <mxCell id="e01b3pUl95MMTs82BliH-23" value="" style="ellipse;whiteSpace=wrap;html=1;aspect=fixed;fontSize=24;fillColor=#f8cecc;strokeColor=#b85450;rotation=-90;" parent="e01b3pUl95MMTs82BliH-19" vertex="1">
          <mxGeometry x="76" y="-75" width="40" height="40" as="geometry" />
        </mxCell>
        <mxCell id="3Zz-Jn9RndfDsJt3GnGG-1" style="edgeStyle=none;curved=1;orthogonalLoop=1;jettySize=auto;html=1;exitX=0.5;exitY=0;exitDx=0;exitDy=0;" parent="e01b3pUl95MMTs82BliH-24" source="e01b3pUl95MMTs82BliH-9" target="e01b3pUl95MMTs82BliH-9" edge="1">
          <mxGeometry relative="1" as="geometry" />
        </mxCell>
        <mxCell id="3Zz-Jn9RndfDsJt3GnGG-3" value="&lt;font face=&quot;Times New Roman&quot; style=&quot;font-size: 35px;&quot;&gt;&lt;b&gt;U&lt;/b&gt;&lt;/font&gt;" style="text;html=1;strokeColor=none;fillColor=none;align=center;verticalAlign=middle;whiteSpace=wrap;rounded=0;dashed=1;strokeWidth=2;" parent="1" vertex="1">
          <mxGeometry x="373" y="-279" width="60" height="30" as="geometry" />
        </mxCell>
        <mxCell id="maZDqukDoqaPE8SbIxAH-30" style="edgeStyle=orthogonalEdgeStyle;curved=1;orthogonalLoop=1;jettySize=auto;html=1;exitX=0.5;exitY=0;exitDx=0;exitDy=0;entryX=0;entryY=0.5;entryDx=0;entryDy=0;strokeWidth=3;" parent="1" source="maZDqukDoqaPE8SbIxAH-23" target="maZDqukDoqaPE8SbIxAH-29" edge="1">
          <mxGeometry relative="1" as="geometry" />
        </mxCell>
        <mxCell id="maZDqukDoqaPE8SbIxAH-23" value="" style="rounded=1;whiteSpace=wrap;html=1;fontFamily=Times New Roman;fontSize=36;strokeColor=#000000;strokeWidth=2;fillColor=none;rotation=90;" parent="1" vertex="1">
          <mxGeometry x="979" y="-108.12" width="200" height="49.5" as="geometry" />
        </mxCell>
        <mxCell id="maZDqukDoqaPE8SbIxAH-24" value="" style="ellipse;whiteSpace=wrap;html=1;aspect=fixed;fontSize=24;fillColor=#f5f5f5;strokeColor=#666666;gradientColor=#b3b3b3;" parent="1" vertex="1">
          <mxGeometry x="1059" y="-175.87" width="40" height="40" as="geometry" />
        </mxCell>
        <mxCell id="maZDqukDoqaPE8SbIxAH-25" value="" style="ellipse;whiteSpace=wrap;html=1;aspect=fixed;fontSize=24;fillColor=#f5f5f5;strokeColor=#666666;gradientColor=#b3b3b3;" parent="1" vertex="1">
          <mxGeometry x="1059" y="-127.87" width="40" height="40" as="geometry" />
        </mxCell>
        <mxCell id="maZDqukDoqaPE8SbIxAH-26" value="" style="ellipse;whiteSpace=wrap;html=1;aspect=fixed;fontSize=24;fillColor=#f5f5f5;strokeColor=#666666;gradientColor=#b3b3b3;" parent="1" vertex="1">
          <mxGeometry x="1059" y="-79.12" width="40" height="40" as="geometry" />
        </mxCell>
        <mxCell id="maZDqukDoqaPE8SbIxAH-27" value="" style="ellipse;whiteSpace=wrap;html=1;aspect=fixed;fontSize=24;fillColor=#f5f5f5;strokeColor=#666666;gradientColor=#b3b3b3;" parent="1" vertex="1">
          <mxGeometry x="1059" y="-32.120000000000005" width="40" height="40" as="geometry" />
        </mxCell>
        <mxCell id="maZDqukDoqaPE8SbIxAH-32" style="orthogonalLoop=1;jettySize=auto;html=1;exitX=1;exitY=0.5;exitDx=0;exitDy=0;entryX=-0.001;entryY=0.571;entryDx=0;entryDy=0;entryPerimeter=0;strokeWidth=3;" parent="1" source="maZDqukDoqaPE8SbIxAH-29" target="e01b3pUl95MMTs82BliH-9" edge="1">
          <mxGeometry relative="1" as="geometry" />
        </mxCell>
        <mxCell id="maZDqukDoqaPE8SbIxAH-29" value="&lt;b&gt;&lt;font style=&quot;font-size: 36px;&quot;&gt;+&lt;/font&gt;&lt;/b&gt;" style="ellipse;whiteSpace=wrap;html=1;aspect=fixed;fontFamily=Times New Roman;fontSize=24;strokeWidth=4;fillColor=none;" parent="1" vertex="1">
          <mxGeometry x="1179" y="-103" width="40" height="40" as="geometry" />
        </mxCell>
        <mxCell id="maZDqukDoqaPE8SbIxAH-34" value="&lt;font size=&quot;1&quot; face=&quot;Times New Roman&quot; style=&quot;&quot;&gt;&lt;i style=&quot;&quot;&gt;&lt;b style=&quot;font-size: 73px;&quot;&gt;Prediction&lt;/b&gt;&lt;/i&gt;&lt;/font&gt;" style="text;html=1;strokeColor=none;fillColor=none;align=center;verticalAlign=middle;whiteSpace=wrap;rounded=0;strokeWidth=3;" parent="1" vertex="1">
          <mxGeometry x="2182" y="675.88" width="252" height="80" as="geometry" />
        </mxCell>
        <mxCell id="maZDqukDoqaPE8SbIxAH-38" style="edgeStyle=orthogonalEdgeStyle;orthogonalLoop=1;jettySize=auto;html=1;exitX=1;exitY=0.5;exitDx=0;exitDy=0;entryX=0;entryY=0.5;entryDx=0;entryDy=0;strokeWidth=3;fontFamily=Times New Roman;fontSize=56;curved=1;" parent="1" source="maZDqukDoqaPE8SbIxAH-37" target="HhYw5Z5-gJKjL5FxkoDt-2" edge="1">
          <mxGeometry relative="1" as="geometry" />
        </mxCell>
        <mxCell id="maZDqukDoqaPE8SbIxAH-39" style="orthogonalLoop=1;jettySize=auto;html=1;exitX=0.5;exitY=0;exitDx=0;exitDy=0;entryX=0.526;entryY=1.004;entryDx=0;entryDy=0;strokeWidth=3;fontFamily=Times New Roman;fontSize=56;entryPerimeter=0;" parent="1" source="maZDqukDoqaPE8SbIxAH-37" target="arP89rZSrupbbn2dp-Xk-6" edge="1">
          <mxGeometry relative="1" as="geometry" />
        </mxCell>
        <mxCell id="maZDqukDoqaPE8SbIxAH-37" value="&lt;font style=&quot;font-size: 56px;&quot;&gt;&lt;i&gt;&lt;b&gt;Characters&lt;/b&gt;&lt;/i&gt;&lt;/font&gt;" style="rounded=1;whiteSpace=wrap;html=1;shadow=0;strokeWidth=3;fontFamily=Times New Roman;fontSize=73;fillColor=#ADD1DA;" parent="1" vertex="1">
          <mxGeometry x="87.5" y="410" width="300" height="100.25" as="geometry" />
        </mxCell>
        <mxCell id="jN2qrviirmYu155-mYuK-1" value="" style="rounded=1;whiteSpace=wrap;html=1;fillColor=#BBC3D2;" parent="1" vertex="1">
          <mxGeometry x="83" y="605.38" width="309" height="91" as="geometry" />
        </mxCell>
      </root>
    </mxGraphModel>
  </diagram>
  <diagram id="QMZ593wVRgQupIurJxMq" name="第 2 页">
    <mxGraphModel dx="1038" dy="568" grid="1" gridSize="10" guides="1" tooltips="1" connect="1" arrows="1" fold="1" page="1" pageScale="1" pageWidth="827" pageHeight="1169" math="0" shadow="0">
      <root>
        <mxCell id="0" />
        <mxCell id="1" parent="0" />
      </root>
    </mxGraphModel>
  </diagram>
</mxfile>
